<?xml version="1.0" encoding="UTF-8"?>
<svg version="1.1" xmlns="http://www.w3.org/2000/svg" width="300" height="300">
<path d="M0 0 C99 0 198 0 300 0 C300 99 300 198 300 300 C201 300 102 300 0 300 C0 201 0 102 0 0 Z " fill="#FEFEFE" transform="translate(0,0)"/>
<path d="M0 0 C3.68646141 1.45855647 5.16143971 3.30229045 7.25 6.625 C7.77078125 7.44226563 8.2915625 8.25953125 8.828125 9.1015625 C9.21484375 9.72804688 9.6015625 10.35453125 10 11 C9.68289062 10.22269531 9.36578125 9.44539063 9.0390625 8.64453125 C8.16698802 6.42500334 7.51589497 4.32152736 7 2 C10.30589918 2.56089693 11.68262811 3.35628034 13.69140625 6.02734375 C14.1601416 6.65020264 14.62887695 7.27306152 15.11181641 7.91479492 C15.82990479 8.91603394 15.82990479 8.91603394 16.5625 9.9375 C17.05411621 10.61466064 17.54573242 11.29182129 18.05224609 11.98950195 C21.62849451 17.08538383 23.89585301 21.83322162 25 28 C25.32629987 29.33507201 25.65748428 30.66899592 26 32 C24.57277341 33.1998278 23.13284224 34.3845576 21.6875 35.5625 C20.88699219 36.22378906 20.08648437 36.88507813 19.26171875 37.56640625 C18.51535156 38.03949219 17.76898438 38.51257813 17 39 C14 38 14 38 12.69921875 36.57421875 C10.32628039 34.37584137 7.88292984 33.76994586 4.8125 32.8125 C3.72582031 32.46832031 2.63914062 32.12414062 1.51953125 31.76953125 C0.27236328 31.38861328 0.27236328 31.38861328 -1 31 C-0.34 29.68 0.32 28.36 1 27 C1.66 27 2.32 27 3 27 C0.47983213 21.4050642 -2.89061893 17.71486865 -7.13671875 13.3671875 C-9 11 -9 11 -9 7 C-6.32543283 7.37792797 -5.19388186 7.79766916 -3.296875 9.77734375 C-2.78640625 10.49019531 -2.2759375 11.20304688 -1.75 11.9375 C-1.22921875 12.64777344 -0.7084375 13.35804688 -0.171875 14.08984375 C1 16 1 16 1 18 C1.66 18 2.32 18 3 18 C0.89348729 14.34132003 -1.44702126 10.99237937 -4.01171875 7.6484375 C-5 6 -5 6 -5 3 C-1.9777185 3.31953637 -1.11860783 3.85586897 0.8515625 6.25 C1.43679687 7.1575 2.02203125 8.065 2.625 9 C4.76464003 12.60311903 4.76464003 12.60311903 8 15 C7.4225 14.16855469 6.845 13.33710938 6.25 12.48046875 C5.5075 11.39378906 4.765 10.30710938 4 9.1875 C3.2575 8.10855469 2.515 7.02960938 1.75 5.91796875 C0 3 0 3 0 0 Z " fill="#7E5D68" transform="translate(60,118)"/>
<path d="M0 0 C-0.35298081 2.9008605 -0.88728296 3.89516676 -3.06640625 5.921875 C-3.89011719 6.52515625 -4.71382812 7.1284375 -5.5625 7.75 C-6.38878906 8.36359375 -7.21507813 8.9771875 -8.06640625 9.609375 C-8.70449219 10.06828125 -9.34257813 10.5271875 -10 11 C-6.79006754 9.83768943 -4.40999752 8.73041546 -1.9375 6.375 C1 4 1 4 5 4 C4.67440623 7.00343637 4.11191572 7.90288795 1.78515625 9.921875 C0.43744141 10.82679688 0.43744141 10.82679688 -0.9375 11.75 C-1.83339844 12.36359375 -2.72929688 12.9771875 -3.65234375 13.609375 C-6 15 -6 15 -8 15 C-8 15.66 -8 16.32 -8 17 C-5.63137007 15.59362598 -3.27478212 14.17653306 -0.95703125 12.6875 C-0.24933594 12.23375 0.45835938 11.78 1.1875 11.3125 C2.19876953 10.65701172 2.19876953 10.65701172 3.23046875 9.98828125 C5 9 5 9 7 9 C7 9.99 7 10.98 7 12 C4.62890625 13.75390625 4.62890625 13.75390625 1.5625 15.5625 C-2.38294027 17.6453516 -2.38294027 17.6453516 -5 21 C-4.45730469 20.6390625 -3.91460937 20.278125 -3.35546875 19.90625 C-2.64003906 19.4421875 -1.92460938 18.978125 -1.1875 18.5 C-0.47980469 18.0359375 0.22789063 17.571875 0.95703125 17.09375 C3 16 3 16 6 16 C4.47150558 20.42134963 0.99356389 22.50758885 -2.6875 25.0625 C-3.28755859 25.49626953 -3.88761719 25.93003906 -4.50585938 26.37695312 C-8.51517572 29.20629881 -12.43820166 31.19636927 -17 33 C-17.886875 33.4125 -18.77375 33.825 -19.6875 34.25 C-22.40710491 35.13203402 -23.35652793 35.01132833 -26 34 C-27.73828125 32.2578125 -27.73828125 32.2578125 -29.3125 30.125 C-29.84488281 29.42632812 -30.37726562 28.72765625 -30.92578125 28.0078125 C-31.28027344 27.34523437 -31.63476562 26.68265625 -32 26 C-31 23 -31 23 -29.57421875 21.69921875 C-27.37584137 19.32628039 -26.76994586 16.88292984 -25.8125 13.8125 C-25.46832031 12.72582031 -25.12414062 11.63914063 -24.76953125 10.51953125 C-24.51558594 9.68808594 -24.26164062 8.85664063 -24 8 C-23.4225 8.309375 -22.845 8.61875 -22.25 8.9375 C-20.08019148 9.9621318 -18.37254408 10.66597781 -16 11 C-13.63893807 9.25794307 -11.57249883 7.54860127 -9.4375 5.5625 C-3.37362972 0 -3.37362972 0 0 0 Z " fill="#F2CB19" transform="translate(94,148)"/>
<path d="M0 0 C3.87790627 1.352758 5.39888672 3.6026635 7.6875 6.9375 C7.6875 8.2575 7.6875 9.5775 7.6875 10.9375 C6.35416667 12.27083333 5.02083333 13.60416667 3.6875 14.9375 C2.57855003 17.72402118 2.57855003 17.72402118 1.9375 20.6875 C1.69515625 21.67234375 1.4528125 22.6571875 1.203125 23.671875 C1.03296875 24.41953125 0.8628125 25.1671875 0.6875 25.9375 C-0.3025 25.9375 -1.2925 25.9375 -2.3125 25.9375 C-2.9725 24.9475 -3.6325 23.9575 -4.3125 22.9375 C-8.76602871 24.90198957 -12.10611631 28.02230652 -15.77734375 31.16015625 C-18.39486488 32.99524425 -20.17011077 33.5721059 -23.3125 33.9375 C-22.96668746 31.0845465 -22.56310578 30.1389485 -20.28125 28.3046875 C-19.4665625 27.81226563 -18.651875 27.31984375 -17.8125 26.8125 C-14.46599998 24.93251315 -14.46599998 24.93251315 -12.3125 21.9375 C-16.20937923 24.50373754 -19.98947252 27.15302845 -23.69921875 29.984375 C-25.3125 30.9375 -25.3125 30.9375 -28.3125 30.9375 C-28.02745414 27.75923864 -27.34323715 26.96327641 -24.84375 24.8671875 C-23.8434375 24.18914062 -22.843125 23.51109375 -21.8125 22.8125 C-17.95078241 20.42168554 -17.95078241 20.42168554 -15.3125 16.9375 C-16.04855469 17.50339844 -16.78460938 18.06929687 -17.54296875 18.65234375 C-18.51878906 19.38582031 -19.49460937 20.11929688 -20.5 20.875 C-21.46292969 21.60589844 -22.42585938 22.33679688 -23.41796875 23.08984375 C-26.20209799 24.86702746 -28.06917585 25.56395444 -31.3125 25.9375 C-29.82073109 22.06742523 -27.67475141 20.54967574 -24.25 18.3125 C-20.68438803 16.16375495 -20.68438803 16.16375495 -18.3125 12.9375 C-18.85519531 13.370625 -19.39789063 13.80375 -19.95703125 14.25 C-21.03017578 15.0853125 -21.03017578 15.0853125 -22.125 15.9375 C-22.83269531 16.494375 -23.54039063 17.05125 -24.26953125 17.625 C-26.3125 18.9375 -26.3125 18.9375 -29.3125 18.9375 C-29.05290381 15.6814221 -28.24743717 14.88070537 -25.73046875 12.68359375 C-24.66441406 11.92175781 -23.59835938 11.15992188 -22.5 10.375 C-21.44167969 9.61058594 -20.38335937 8.84617188 -19.29296875 8.05859375 C-18.30941406 7.35863281 -17.32585938 6.65867188 -16.3125 5.9375 C-15.60996094 5.37417969 -14.90742187 4.81085938 -14.18359375 4.23046875 C-12.15688579 2.82996701 -10.58600003 2.31408746 -8.1875 1.8125 C-0.14353448 -0.00387931 -0.14353448 -0.00387931 0 0 Z " fill="#383838" transform="translate(51.3125,134.0625)"/>
<path d="M0 0 C0.7734375 0.8971875 0.7734375 0.8971875 1.5625 1.8125 C5.17533756 5.05479012 9.36223918 5.83170911 14 7 C14 8.32 14 9.64 14 11 C13.01 11.495 13.01 11.495 12 12 C11.67 12.99 11.34 13.98 11 15 C11.66 15 12.32 15 13 15 C14.79938711 17.06782027 16.47146088 19.13325586 18.125 21.3125 C18.82689453 22.20485352 18.82689453 22.20485352 19.54296875 23.11523438 C23 27.62550109 23 27.62550109 23 31 C20.30730091 30.62698541 19.21610375 30.2398855 17.3671875 28.1875 C16.87476562 27.465625 16.38234375 26.74375 15.875 26 C13.89926624 22.97716106 13.89926624 22.97716106 11 21 C11.5775 21.74765625 12.155 22.4953125 12.75 23.265625 C13.4925 24.25046875 14.235 25.2353125 15 26.25 C15.7425 27.22453125 16.485 28.1990625 17.25 29.203125 C19 32 19 32 19 36 C18.01 36 17.02 36 16 36 C13.95703125 33.6640625 13.95703125 33.6640625 11.8125 30.625 C11.09707031 29.62726563 10.38164063 28.62953125 9.64453125 27.6015625 C8 25 8 25 8 23 C7.34 23 6.68 23 6 23 C8.10651271 26.65867997 10.44702126 30.00762063 13.01171875 33.3515625 C14 35 14 35 14 38 C10.33283741 36.54742261 8.91553575 34.76538946 6.875 31.4375 C4.98528237 28.12890878 4.98528237 28.12890878 2 26 C2 26.99 2 27.98 2 29 C2.99 29.33 3.98 29.66 5 30 C8 34.33333333 8 34.33333333 8 37 C4.62917956 36.78101399 3.83250909 35.8126642 1.52734375 33.234375 C0.65354834 32.08080595 -0.20942792 30.91897733 -1.0625 29.75 C-1.49626953 29.17636719 -1.93003906 28.60273438 -2.37695312 28.01171875 C-6.1609617 22.95485493 -9.11898463 18.38687028 -10.6875 12.1875 C-10.93886719 11.21167969 -11.19023438 10.23585937 -11.44921875 9.23046875 C-11.63097656 8.49441406 -11.81273437 7.75835937 -12 7 C-10.56967163 5.82455195 -9.13046758 4.65989738 -7.6875 3.5 C-6.88699219 2.8503125 -6.08648437 2.200625 -5.26171875 1.53125 C-3 0 -3 0 0 0 Z " fill="#45BA95" transform="translate(48,160)"/>
<path d="M0 0 C4.57766879 3.23129562 8.12965843 7.19636995 11 12 C11 15 11 15 9 17.1875 C8.01 18.0846875 8.01 18.0846875 7 19 C7.81984375 19.17015625 8.6396875 19.3403125 9.484375 19.515625 C11.10085937 19.87914062 11.10085937 19.87914062 12.75 20.25 C13.81734375 20.48203125 14.8846875 20.7140625 15.984375 20.953125 C19.26814405 22.09308628 20.77074995 23.38117228 23 26 C27.92432253 24.31166085 31.3435645 21.6564355 35 18 C34.50750176 22.24871618 33.40926002 24.08958225 30.1875 26.875 C29.50042969 27.49117187 28.81335938 28.10734375 28.10546875 28.7421875 C26 30 26 30 23.98828125 29.8828125 C21.70634158 28.86961335 19.92503626 27.58127978 18 26 C17.82984375 26.81984375 17.6596875 27.6396875 17.484375 28.484375 C17.24203125 29.56203125 16.9996875 30.6396875 16.75 31.75 C16.51796875 32.81734375 16.2859375 33.8846875 16.046875 34.984375 C14.90691372 38.26814405 13.61882772 39.77074995 11 42 C13.21145753 46.79149131 15.56163176 51.04108784 20 54 C19.34 55.32 18.68 56.64 18 58 C16.4941255 56.21326795 14.9954515 54.42046492 13.5 52.625 C12.6646875 51.62726563 11.829375 50.62953125 10.96875 49.6015625 C9 47 9 47 9 45 C8.34 45 7.68 45 7 45 C7.375 43.0625 7.375 43.0625 8 41 C8.99 40.505 8.99 40.505 10 40 C10 39.34 10 38.68 10 38 C9.15695313 37.75765625 8.31390625 37.5153125 7.4453125 37.265625 C6.34960938 36.93046875 5.25390625 36.5953125 4.125 36.25 C3.03445312 35.92515625 1.94390625 35.6003125 0.8203125 35.265625 C-2 34 -2 34 -3.3828125 31.859375 C-3.58648437 31.24578125 -3.79015625 30.6321875 -4 30 C-8.27878027 32.03751441 -12.11282869 34.31600076 -16 37 C-16.66 36.34 -17.32 35.68 -18 35 C-14.37 32.03 -10.74 29.06 -7 26 C-3 28 -3 28 -1 30 C-0.75765625 29.08476562 -0.5153125 28.16953125 -0.265625 27.2265625 C0.06953125 26.03804687 0.4046875 24.84953125 0.75 23.625 C1.23726562 21.84996094 1.23726562 21.84996094 1.734375 20.0390625 C3 17 3 17 5.140625 15.5859375 C5.75421875 15.39257812 6.3678125 15.19921875 7 15 C5.18690951 9.71181939 2.67111564 6.11407709 -2 3 C-1.34 2.01 -0.68 1.02 0 0 Z " fill="#F7F7F6" transform="translate(52,130)"/>
<path d="M0 0 C10 0 20 0 30 0 C30 0.99 30 1.98 30 3 C26.7 3 23.4 3 20 3 C20 4.65 20 6.3 20 8 C22.64 8 25.28 8 28 8 C28 8.99 28 9.98 28 11 C25.36 11 22.72 11 20 11 C20 12.65 20 14.3 20 16 C23.3 16 26.6 16 30 16 C30 16.99 30 17.98 30 19 C27.72942623 19.05398987 25.45848712 19.09278742 23.1875 19.125 C21.29064453 19.15980469 21.29064453 19.15980469 19.35546875 19.1953125 C16 19 16 19 13 17 C13 17.66 13 18.32 13 19 C8.71 19 4.42 19 0 19 C0 12.73 0 6.46 0 0 Z " fill="#FBFBFB" transform="translate(241,148)"/>
<path d="M0 0 C2.87305972 1.40460697 4.74510999 2.74510999 7 5 C7.45993557 9.67601163 7.67058528 11.91318937 5.1875 15.9375 C2.35796607 18.60534627 0.4668291 18.9481301 -3.375 19.375 C-7 19 -7 19 -9.9375 17.0625 C-12.34599732 13.48624641 -12.74203371 11.39468093 -12.48046875 7.16015625 C-10.99125324 0.46474017 -6.1406118 -0.87723026 0 0 Z " fill="#494949" transform="translate(135,148)"/>
<path d="M0 0 C11.47881923 -0.37028449 11.47881923 -0.37028449 13.90234375 1.3515625 C15 3 15 3 14.75 5.5625 C14 8 14 8 13 10 C13.66 10 14.32 10 15 10 C15.1875 13.375 15.1875 13.375 15 17 C10.25368713 20.16420858 5.63243123 19.12112755 0 19 C0 12.73 0 6.46 0 0 Z " fill="#424242" transform="translate(274,148)"/>
<path d="M0 0 C11.47881923 -0.37028449 11.47881923 -0.37028449 13.90234375 1.3515625 C15 3 15 3 14.75 5.5625 C14 8 14 8 13 10 C13.66 10 14.32 10 15 10 C15.1875 13.375 15.1875 13.375 15 17 C10.25368713 20.16420858 5.63243123 19.12112755 0 19 C0 12.73 0 6.46 0 0 Z " fill="#424242" transform="translate(222,148)"/>
<path d="M0 0 C11.25 -0.40178571 11.25 -0.40178571 15 3 C14.25 9.75 14.25 9.75 12 12 C12.33 12.598125 12.66 13.19625 13 13.8125 C14 16 14 16 14 19 C13.01 19 12.02 19 11 19 C10.608125 17.865625 10.21625 16.73125 9.8125 15.5625 C8.41389118 11.79660949 8.41389118 11.79660949 5.3125 11.0625 C4.549375 11.041875 3.78625 11.02125 3 11 C3 13.64 3 16.28 3 19 C2.01 19 1.02 19 0 19 C0 12.73 0 6.46 0 0 Z " fill="#3F3F3F" transform="translate(166,148)"/>
<path d="M0 0 C1.87988281 0.27954102 1.87988281 0.27954102 4 1 C5.09667969 2.55053711 5.09667969 2.55053711 5.921875 4.52734375 C6.22480469 5.23697266 6.52773437 5.94660156 6.83984375 6.67773438 C7.14019531 7.42345703 7.44054687 8.16917969 7.75 8.9375 C8.22373047 10.0502832 8.22373047 10.0502832 8.70703125 11.18554688 C11 16.65988569 11 16.65988569 11 19 C9.68 19 8.36 19 7 19 C6.67 18.01 6.34 17.02 6 16 C3.03 16 0.06 16 -3 16 C-3.33 16.99 -3.66 17.98 -4 19 C-4.99 19 -5.98 19 -7 19 C-6.4253379 14.21357393 -5.01754357 10.46211213 -2.9375 6.125 C-2.38964844 4.97257813 -1.84179688 3.82015625 -1.27734375 2.6328125 C-0.85582031 1.76398438 -0.43429688 0.89515625 0 0 Z " fill="#4C4C4C" transform="translate(208,148)"/>
<path d="M0 0 C4.62 0 9.24 0 14 0 C14 0.99 14 1.98 14 3 C10.7 3 7.4 3 4 3 C4 4.65 4 6.3 4 8 C6.64 8 9.28 8 12 8 C12 8.99 12 9.98 12 11 C9.36 11 6.72 11 4 11 C4 12.65 4 14.3 4 16 C7.3 16 10.6 16 14 16 C14 16.99 14 17.98 14 19 C9.38 19 4.76 19 0 19 C0 12.73 0 6.46 0 0 Z " fill="#545454" transform="translate(257,148)"/>
<path d="M0 0 C3.68646141 1.45855647 5.16143971 3.30229045 7.25 6.625 C7.77078125 7.44226563 8.2915625 8.25953125 8.828125 9.1015625 C9.21484375 9.72804688 9.6015625 10.35453125 10 11 C9.52433594 9.83404297 9.52433594 9.83404297 9.0390625 8.64453125 C8.16698802 6.42500334 7.51589497 4.32152736 7 2 C9.70438996 2.36405249 10.74406383 2.68142682 12.484375 4.84765625 C13.11085938 5.94400391 13.11085938 5.94400391 13.75 7.0625 C14.17796875 7.79597656 14.6059375 8.52945313 15.046875 9.28515625 C15.36140625 9.85105469 15.6759375 10.41695312 16 11 C15.34 11 14.68 11 14 11 C13.67 11.66 13.34 12.32 13 13 C11.68 13 10.36 13 9 13 C9 13.99 9 14.98 9 16 C7.35 16 5.7 16 4 16 C4 16.99 4 17.98 4 19 C3.34 18.67 2.68 18.34 2 18 C1.85691406 17.40316406 1.71382812 16.80632812 1.56640625 16.19140625 C0.68903888 12.79690216 -1.53742687 10.58117789 -3.72265625 7.90234375 C-5 6 -5 6 -5 3 C-1.9777185 3.31953637 -1.11860783 3.85586897 0.8515625 6.25 C1.43679687 7.1575 2.02203125 8.065 2.625 9 C4.76464003 12.60311903 4.76464003 12.60311903 8 15 C7.4225 14.16855469 6.845 13.33710938 6.25 12.48046875 C5.5075 11.39378906 4.765 10.30710938 4 9.1875 C3.2575 8.10855469 2.515 7.02960938 1.75 5.91796875 C0 3 0 3 0 0 Z " fill="#957982" transform="translate(60,118)"/>
<path d="M0 0 C4.29 0 8.58 0 13 0 C13 0.99 13 1.98 13 3 C9.7 3 6.4 3 3 3 C3 4.65 3 6.3 3 8 C5.64 8 8.28 8 11 8 C11 8.99 11 9.98 11 11 C8.36 11 5.72 11 3 11 C3 12.65 3 14.3 3 16 C6.3 16 9.6 16 13 16 C13 16.99 13 17.98 13 19 C8.71 19 4.42 19 0 19 C0 12.73 0 6.46 0 0 Z " fill="#494949" transform="translate(241,148)"/>
<path d="M0 0 C2 2 2 2 2.265625 4.09375 C2.26046875 4.8878125 2.2553125 5.681875 2.25 6.5 C2.25515625 7.2940625 2.2603125 8.088125 2.265625 8.90625 C2 11 2 11 0 13 C-6.00458716 13.54587156 -6.00458716 13.54587156 -8.9375 11.9375 C-10.6140629 8.88023824 -10.36528977 6.4093712 -10 3 C-7.77611809 -1.05531408 -4.20231132 -0.3820283 0 0 Z " fill="#F9F9F9" transform="translate(136,151)"/>
<path d="M0 0 C0.99 0 1.98 0 3 0 C3.06058594 0.99902344 3.12117187 1.99804688 3.18359375 3.02734375 C3.26738281 4.31769531 3.35117188 5.60804688 3.4375 6.9375 C3.51871094 8.22527344 3.59992188 9.51304687 3.68359375 10.83984375 C3.64919188 13.86023957 3.64919188 13.86023957 5 15 C8.5 15.16666667 8.5 15.16666667 12 15 C13.94090826 13.05909174 13.39919435 9.52706098 13.5625 6.9375 C13.64628906 5.64714844 13.73007813 4.35679687 13.81640625 3.02734375 C13.87699219 2.02832031 13.93757812 1.02929688 14 0 C14.99 0 15.98 0 17 0 C17.13536629 2.41854446 17.23420279 4.82949783 17.3125 7.25 C17.35439453 7.93191406 17.39628906 8.61382812 17.43945312 9.31640625 C17.53128635 13.09993492 17.32644887 14.65193567 14.69921875 17.453125 C11.15090412 19.48660198 9.03278543 19.5761122 5 19 C2.30078125 17.453125 2.30078125 17.453125 0 15 C-0.37398847 12.18760674 -0.48293015 10.02407845 -0.3125 7.25 C-0.27866211 6.20392578 -0.27866211 6.20392578 -0.24414062 5.13671875 C-0.18547048 3.42355065 -0.09579256 1.71149377 0 0 Z " fill="#424242" transform="translate(145,148)"/>
<path d="M0 0 C1.32 0 2.64 0 4 0 C8 6.75 8 6.75 8 9 C8.66 9 9.32 9 10 9 C10.28875 8.2575 10.5775 7.515 10.875 6.75 C11.82302644 4.43260203 12.84845911 2.22082885 14 0 C15.32 0.33 16.64 0.66 18 1 C17.57847656 1.6290625 17.15695313 2.258125 16.72265625 2.90625 C13.19374867 8.41964913 11.24309615 12.43640403 11 19 C9.68 19 8.36 19 7 19 C6.95875 17.88625 6.9175 16.7725 6.875 15.625 C6.29876738 10.66939948 3.95342271 7.12821618 1.27734375 3.00390625 C0 1 0 1 0 0 Z " fill="#4A4A4A" transform="translate(102,148)"/>
<path d="M0 0 C0.66 0.33 1.32 0.66 2 1 C1.154375 1.721875 0.30875 2.44375 -0.5625 3.1875 C-1.7690625 4.5796875 -1.7690625 4.5796875 -3 6 C-2.75319799 8.56740432 -2.75319799 8.56740432 -2 11 C-3.23982337 14.38072055 -5.02216055 16.11844449 -7.875 18.25 C-8.55304687 18.77078125 -9.23109375 19.2915625 -9.9296875 19.828125 C-12 21 -12 21 -16 21 C-14.50823109 17.12992523 -12.36225141 15.61217574 -8.9375 13.375 C-5.37188803 11.22625495 -5.37188803 11.22625495 -3 8 C-3.54269531 8.433125 -4.08539063 8.86625 -4.64453125 9.3125 C-5.71767578 10.1478125 -5.71767578 10.1478125 -6.8125 11 C-7.87404297 11.8353125 -7.87404297 11.8353125 -8.95703125 12.6875 C-11 14 -11 14 -14 14 C-13.75670799 10.67754354 -12.89328175 9.90770733 -10.3125 7.67578125 C-9.21606697 6.87729198 -8.11154575 6.08981367 -7 5.3125 C-5.89558574 4.51727083 -4.79140711 3.72171428 -3.6875 2.92578125 C-2.800625 2.29027344 -1.91375 1.65476563 -1 1 C-0.67 0.67 -0.34 0.34 0 0 Z " fill="#5A5A5A" transform="translate(36,139)"/>
<path d="M0 0 C4.95 0 9.9 0 15 0 C15 0.66 15 1.32 15 2 C13.02 2 11.04 2 9 2 C9 7.61 9 13.22 9 19 C8.01 19 7.02 19 6 19 C6 13.39 6 7.78 6 2 C4.02 2 2.04 2 0 2 C0 1.34 0 0.68 0 0 Z " fill="#333333" transform="translate(183,148)"/>
<path d="M0 0 C4.57766879 3.23129562 8.12965843 7.19636995 11 12 C11 12.99 11 13.98 11 15 C8.5 17.1875 8.5 17.1875 6 19 C6 18.34 6 17.68 6 17 C5.34 16.67 4.68 16.34 4 16 C4.99 15.67 5.98 15.34 7 15 C5.18690951 9.71181939 2.67111564 6.11407709 -2 3 C-1.34 2.01 -0.68 1.02 0 0 Z " fill="#D4D0D1" transform="translate(52,130)"/>
<path d="M0 0 C2.475 0.495 2.475 0.495 5 1 C5.33 2.32 5.66 3.64 6 5 C5.01 5.495 5.01 5.495 4 6 C6.21145753 10.79149131 8.56163176 15.04108784 13 18 C12.34 19.32 11.68 20.64 11 22 C9.4941255 20.21326795 7.9954515 18.42046492 6.5 16.625 C5.24703125 15.12839844 5.24703125 15.12839844 3.96875 13.6015625 C2 11 2 11 2 9 C1.34 9 0.68 9 0 9 C0.375 7.0625 0.375 7.0625 1 5 C1.66 4.67 2.32 4.34 3 4 C3 3.34 3 2.68 3 2 C2.01 1.34 1.02 0.68 0 0 Z " fill="#E3F1DE" transform="translate(59,166)"/>
<path d="M0 0 C3.00343637 0.32559377 3.90288795 0.88808428 5.921875 3.21484375 C6.52515625 4.11332031 7.1284375 5.01179688 7.75 5.9375 C8.36359375 6.83339844 8.9771875 7.72929687 9.609375 8.65234375 C11 11 11 11 11 13 C10.34 13 9.68 13 9 13 C9 13.99 9 14.98 9 16 C8.34 15.67 7.68 15.34 7 15 C6.85691406 14.40316406 6.71382812 13.80632812 6.56640625 13.19140625 C5.68903888 9.79690216 3.46257313 7.58117789 1.27734375 4.90234375 C0 3 0 3 0 0 Z " fill="#876873" transform="translate(55,121)"/>
<path d="M0 0 C0.33 0.99 0.66 1.98 1 3 C-1.5830211 7.95079043 -5.02490735 11.39125072 -10 14 C-10.99 14 -11.98 14 -13 14 C-12.71495414 10.82173864 -12.03073715 10.02577641 -9.53125 7.9296875 C-8.5309375 7.25164062 -7.530625 6.57359375 -6.5 5.875 C-2.63828241 3.48418554 -2.63828241 3.48418554 0 0 Z " fill="#434343" transform="translate(36,151)"/>
<path d="M0 0 C0.99 0 1.98 0 3 0 C3.0809723 2.43816585 3.14046972 4.87364384 3.1875 7.3125 C3.22520508 8.34793945 3.22520508 8.34793945 3.26367188 9.40429688 C3.33834499 14.55674183 3.33834499 14.55674183 1.48828125 16.98046875 C0.99714844 17.31691406 0.50601563 17.65335938 0 18 C-0.99 17.67 -1.98 17.34 -3 17 C-2.01 15.515 -2.01 15.515 -1 14 C-0.70547416 11.61322924 -0.5071783 9.21373906 -0.375 6.8125 C-0.30023438 5.54019531 -0.22546875 4.26789063 -0.1484375 2.95703125 C-0.09945312 1.98121094 -0.05046875 1.00539062 0 0 Z " fill="#373737" transform="translate(159,148)"/>
<path d="M0 0 C0.33 1.32 0.66 2.64 1 4 C-0.40214934 5.36919284 -1.82228473 6.71998709 -3.25 8.0625 C-4.03890625 8.81660156 -4.8278125 9.57070312 -5.640625 10.34765625 C-8 12 -8 12 -10.15625 11.875 C-12.63034854 10.70085154 -14.17825273 9.01693448 -16 7 C-15.34 7 -14.68 7 -14 7 C-13.67 6.34 -13.34 5.68 -13 5 C-12.01 6.485 -12.01 6.485 -11 8 C-6.52167812 6.46457536 -2.19572974 4.39145948 0 0 Z " fill="#F0E8D5" transform="translate(86,148)"/>
<path d="M0 0 C2.64 0.33 5.28 0.66 8 1 C8.042721 2.66611905 8.04063832 4.33382885 8 6 C7 7 7 7 3.4375 7.0625 C2.303125 7.041875 1.16875 7.02125 0 7 C0 4.69 0 2.38 0 0 Z " fill="#EDEDED" transform="translate(169,150)"/>
<path d="M0 0 C6.15334773 5.98704104 6.15334773 5.98704104 8 9 C8 10.32 8 11.64 8 13 C7.01 13 6.02 13 5 13 C2.95703125 10.59375 2.95703125 10.59375 0.8125 7.5 C0.09707031 6.4790625 -0.61835937 5.458125 -1.35546875 4.40625 C-1.89816406 3.6121875 -2.44085938 2.818125 -3 2 C-2.01 1.34 -1.02 0.68 0 0 Z " fill="#52BF9C" transform="translate(59,183)"/>
<path d="M0 0 C1.32 0.66 2.64 1.32 4 2 C4.33 2.99 4.66 3.98 5 5 C4.01 5.495 4.01 5.495 3 6 C3 5.34 3 4.68 3 4 C-1.27878027 6.03751441 -5.11282869 8.31600076 -9 11 C-9.66 10.34 -10.32 9.68 -11 9 C-7.37 6.03 -3.74 3.06 0 0 Z " fill="#D4DFDC" transform="translate(45,156)"/>
<path d="M0 0 C2.72574271 0.37330824 3.80822085 0.79194601 5.703125 2.84765625 C6.21359375 3.57855469 6.7240625 4.30945313 7.25 5.0625 C8.03117187 6.16271484 8.03117187 6.16271484 8.828125 7.28515625 C9.21484375 7.85105469 9.6015625 8.41695312 10 9 C9.34 10.32 8.68 11.64 8 13 C6.65472507 11.59466816 5.3241269 10.17527548 4 8.75 C3.2575 7.96109375 2.515 7.1721875 1.75 6.359375 C0 4 0 4 0 0 Z " fill="#8C6E78" transform="translate(51,125)"/>
<path d="M0 0 C1.32 0.33 2.64 0.66 4 1 C4.66 3.31 5.32 5.62 6 8 C5.01 8.33 4.02 8.66 3 9 C2.34 8.01 1.68 7.02 1 6 C0.01 7.485 0.01 7.485 -1 9 C-1.66 9 -2.32 9 -3 9 C-2.44271087 5.65626525 -1.64826111 2.96687001 0 0 Z " fill="#494949" transform="translate(208,148)"/>
<path d="M0 0 C1.32 0.66 2.64 1.32 4 2 C2.76125579 3.178611 1.5085199 4.34252915 0.25 5.5 C-0.79414062 6.47453125 -0.79414062 6.47453125 -1.859375 7.46875 C-4 9 -4 9 -8 9 C-7.61479436 6.46089803 -7.29902057 5.27248877 -5.37109375 3.515625 C-4.73300781 3.09796875 -4.09492188 2.6803125 -3.4375 2.25 C-2.79683594 1.82203125 -2.15617187 1.3940625 -1.49609375 0.953125 C-1.00238281 0.63859375 -0.50867187 0.3240625 0 0 Z " fill="#545454" transform="translate(36,159)"/>
<path d="M0 0 C2.97 0 5.94 0 9 0 C9 1.65 9 3.3 9 5 C6.03 5 3.06 5 0 5 C0 3.35 0 1.7 0 0 Z " fill="#F2F2F2" transform="translate(277,159)"/>
<path d="M0 0 C2.97 0 5.94 0 9 0 C9 1.65 9 3.3 9 5 C6.03 5 3.06 5 0 5 C0 3.35 0 1.7 0 0 Z " fill="#F2F2F2" transform="translate(225,159)"/>
<path d="M0 0 C0 0.99 0 1.98 0 3 C-2.484375 4.859375 -2.484375 4.859375 -5.75 6.75 C-6.81734375 7.38421875 -7.8846875 8.0184375 -8.984375 8.671875 C-12 10 -12 10 -14.390625 9.703125 C-15.18726562 9.35507813 -15.18726562 9.35507813 -16 9 C-15.67 8.34 -15.34 7.68 -15 7 C-14.41476563 6.85691406 -13.82953125 6.71382812 -13.2265625 6.56640625 C-10.46851791 5.86479842 -8.6921778 4.57657393 -6.375 2.9375 C-2.21411765 0 -2.21411765 0 0 0 Z " fill="#F3CF2B" transform="translate(101,157)"/>
<path d="M0 0 C2.64 0 5.28 0 8 0 C8.5625 1.9375 8.5625 1.9375 9 4 C8 5 8 5 6.15234375 5.09765625 C4.1015625 5.06510417 2.05078125 5.03255208 0 5 C0 3.35 0 1.7 0 0 Z " fill="#EFEFEF" transform="translate(277,151)"/>
<path d="M0 0 C2.64 0 5.28 0 8 0 C8.5625 1.9375 8.5625 1.9375 9 4 C8 5 8 5 6.15234375 5.09765625 C4.1015625 5.06510417 2.05078125 5.03255208 0 5 C0 3.35 0 1.7 0 0 Z " fill="#EFEFEF" transform="translate(225,151)"/>
<path d="M0 0 C2.31327974 2.82734191 4.56720469 5.69594988 6.75 8.625 C7.39195313 9.47964844 7.39195313 9.47964844 8.046875 10.3515625 C9 12 9 12 9 15 C5.17551612 13.52519903 3.74957636 11.54705088 1.6875 8.0625 C1.15511719 7.18722656 0.62273438 6.31195313 0.07421875 5.41015625 C-1 3 -1 3 0 0 Z " fill="#52BF9C" transform="translate(53,183)"/>
<path d="M0 0 C3.71279784 1.44386582 4.9486443 3.12236392 6.75 6.625 C7.17796875 7.44226563 7.6059375 8.25953125 8.046875 9.1015625 C8.51867187 10.04128906 8.51867187 10.04128906 9 11 C8.34 11.66 7.68 12.32 7 13 C5.82479354 11.40207898 4.66008753 9.79643092 3.5 8.1875 C2.8503125 7.29417969 2.200625 6.40085937 1.53125 5.48046875 C0 3 0 3 0 0 Z " fill="#8B6D77" transform="translate(60,118)"/>
<path d="M0 0 C0.99 0.33 1.98 0.66 3 1 C2.34 1 1.68 1 1 1 C3.24956789 5.82221201 5.59917457 9.87042626 9 14 C9 14.66 9 15.32 9 16 C5.2296742 14.74322473 4.64472343 13.34072857 2.5 10.0625 C0.41454046 6.88400355 -0.80150116 5.13233256 -4 3 C-2.68 3 -1.36 3 0 3 C0 2.01 0 1.02 0 0 Z " fill="#D0C4C8" transform="translate(59,117)"/>
<path d="M0 0 C0.66 0 1.32 0 2 0 C3.98046875 2.23046875 3.98046875 2.23046875 6.1875 5.1875 C6.92355469 6.15042969 7.65960938 7.11335937 8.41796875 8.10546875 C10 11 10 11 9.73828125 13.86328125 C9.49464844 14.56839844 9.25101563 15.27351562 9 16 C8.01 15.67 7.02 15.34 6 15 C6.66 15 7.32 15 8 15 C7.23570339 13.55901389 6.46327445 12.12233946 5.6875 10.6875 C5.25824219 9.88699219 4.82898437 9.08648437 4.38671875 8.26171875 C3.11688638 5.97769013 3.11688638 5.97769013 1.33203125 4.39453125 C0 3 0 3 0 0 Z " fill="#B3E3D3" transform="translate(54,183)"/>
<path d="M0 0 C3.46926395 1.15642132 3.97198451 2.01694644 6 4.9375 C7.94401596 7.7269604 9.10177325 9.06784883 12 11 C10.68 12.32 9.36 13.64 8 15 C7.4121875 13.453125 7.4121875 13.453125 6.8125 11.875 C5.6361313 9.08677995 4.29656244 6.97029911 2.3125 4.6875 C0 2 0 2 0 0 Z " fill="#C7EADF" transform="translate(59,181)"/>
<path d="M0 0 C-0.38520564 2.53910197 -0.70097943 3.72751123 -2.62890625 5.484375 C-3.26699219 5.90203125 -3.90507813 6.3196875 -4.5625 6.75 C-5.20316406 7.17796875 -5.84382813 7.6059375 -6.50390625 8.046875 C-7.24447266 8.51867187 -7.24447266 8.51867187 -8 9 C-8.33 7.68 -8.66 6.36 -9 5 C-3.375 0 -3.375 0 0 0 Z " fill="#F3D030" transform="translate(94,148)"/>
<path d="M0 0 C0.66 0.99 1.32 1.98 2 3 C3.83454034 5.29110016 5.68252464 7.57043833 7.5390625 9.84375 C9 12 9 12 9 15 C8.34 15 7.68 15 7 15 C5.7912002 13.42127834 4.65619701 11.78553783 3.5625 10.125 C1.45962732 6.93662716 0.21088546 5.14059031 -3 3 C-2.01 3 -1.02 3 0 3 C0 2.01 0 1.02 0 0 Z " fill="#D6CCCF" transform="translate(54,121)"/>
<path d="M0 0 C0.33 0.66 0.66 1.32 1 2 C3.02463255 2.65213292 3.02463255 2.65213292 5 3 C4.01 3.309375 4.01 3.309375 3 3.625 C-0.51897331 5.23786277 -3.16747854 7.3920493 -6.1328125 9.85546875 C-6.74898438 10.23316406 -7.36515625 10.61085937 -8 11 C-8.99 10.67 -9.98 10.34 -11 10 C-10.28972656 9.44570312 -9.57945313 8.89140625 -8.84765625 8.3203125 C-7.92855469 7.59585938 -7.00945312 6.87140625 -6.0625 6.125 C-5.14597656 5.40570313 -4.22945313 4.68640625 -3.28515625 3.9453125 C-0.93990515 2.20579164 -0.93990515 2.20579164 0 0 Z " fill="#FBEFB8" transform="translate(94,149)"/>
<path d="M0 0 C0.99 0.66 1.98 1.32 3 2 C1.95199219 2.61488281 1.95199219 2.61488281 0.8828125 3.2421875 C-0.02726562 3.78101563 -0.93734375 4.31984375 -1.875 4.875 C-3.23238281 5.67550781 -3.23238281 5.67550781 -4.6171875 6.4921875 C-7.06603282 7.91975352 -7.06603282 7.91975352 -9 10 C-9.99 10 -10.98 10 -12 10 C-12 9.34 -12 8.68 -12 8 C-10.02559073 6.5368217 -8.06761129 5.19286936 -6 3.875 C-5.42765625 3.50246094 -4.8553125 3.12992188 -4.265625 2.74609375 C-2.84778218 1.82449592 -1.42439275 0.91144179 0 0 Z " fill="#FAEBA9" transform="translate(98,155)"/>
<path d="M0 0 C-1.21388652 3.64165955 -2.24294152 4.03726327 -5.4375 6 C-8.53633749 7.91003788 -9.93774972 8.90662458 -12 12 C-12.33 10.68 -12.66 9.36 -13 8 C-11.2126038 6.66094733 -9.41995047 5.32890934 -7.625 4 C-6.62726562 3.2575 -5.62953125 2.515 -4.6015625 1.75 C-2 0 -2 0 0 0 Z " fill="#C0C0C0" transform="translate(39,156)"/>
<path d="M0 0 C5.57142857 5.14285714 5.57142857 5.14285714 6 9 C3.13275314 8.42655063 2.1385485 8.1385485 0 6 C-0.125 2.875 -0.125 2.875 0 0 Z " fill="#57C19F" transform="translate(65,182)"/>
<path d="M0 0 C-1.38801071 3.35435922 -2.88629 5.11290303 -6 7 C-6.99 7 -7.98 7 -9 7 C-8.875 5.1875 -8.875 5.1875 -8 3 C-2.96428571 0 -2.96428571 0 0 0 Z " fill="#515151" transform="translate(31,146)"/>
<path d="M0 0 C-1.50223584 4.20626034 -4.28550034 5.73900021 -8 8 C-8.33 6.68 -8.66 5.36 -9 4 C-3.375 0 -3.375 0 0 0 Z " fill="#F3CF2B" transform="translate(100,164)"/>
<path d="M0 0 C0.99 0.33 1.98 0.66 3 1 C2.34 1 1.68 1 1 1 C1.680625 2.093125 2.36125 3.18625 3.0625 4.3125 C4.22265625 6.17578125 4.22265625 6.17578125 5 8 C4.67 8.99 4.34 9.98 4 11 C2.99421411 9.71283353 1.99553202 8.42011342 1 7.125 C0.443125 6.40570313 -0.11375 5.68640625 -0.6875 4.9453125 C-2 3 -2 3 -2 1 C-1.34 0.67 -0.68 0.34 0 0 Z " fill="#D4C9CD" transform="translate(66,119)"/>
<path d="M0 0 C0.66 0.33 1.32 0.66 2 1 C1.154375 1.721875 0.30875 2.44375 -0.5625 3.1875 C-3.34894155 5.73609463 -3.34894155 5.73609463 -2.8125 8.8125 C-2.544375 9.534375 -2.27625 10.25625 -2 11 C-2.66 10.67 -3.32 10.34 -4 10 C-3.67 9.34 -3.34 8.68 -3 8 C-4.98 8 -6.96 8 -9 8 C-6.17493137 5.0702992 -3.21203935 2.49825283 0 0 Z " fill="#5C5C5C" transform="translate(36,139)"/>
<path d="M0 0 C4.20390632 1.50139512 5.89110738 4.17275043 8 8 C7.67 8.99 7.34 9.98 7 11 C6.401875 10.236875 5.80375 9.47375 5.1875 8.6875 C3.1719574 6.08429709 3.1719574 6.08429709 1.25 4.375 C0 3 0 3 0 0 Z " fill="#C4E9DD" transform="translate(50,186)"/>
<path d="M0 0 C2.79872437 2.52788007 4.45773019 4.20411134 5 8 C3.125 7.6875 3.125 7.6875 1 7 C-1 4 -1 4 -0.625 1.8125 C-0.41875 1.214375 -0.2125 0.61625 0 0 Z " fill="#5BC3A1" transform="translate(51,189)"/>
<path d="M0 0 C2 1 2 1 3.125 4.0625 C3.41375 5.031875 3.7025 6.00125 4 7 C2.02 7 0.04 7 -2 7 C-1.125 1.125 -1.125 1.125 0 0 Z " fill="#E2E2E2" transform="translate(209,153)"/>
<path d="M0 0 C0.556875 0.391875 1.11375 0.78375 1.6875 1.1875 C-1.9250362 3.03577434 -5.5214881 4.73799545 -9.3125 6.1875 C-8.2566902 3.40400144 -7.30731748 2.18340854 -4.9375 0.3125 C-2.3125 -0.8125 -2.3125 -0.8125 0 0 Z " fill="#FAEDB0" transform="translate(98.3125,162.8125)"/>
<path d="M0 0 C0.66 0 1.32 0 2 0 C0.50164772 4.66154042 -2.88463591 5.86610751 -7 8 C-7.66 7.34 -8.32 6.68 -9 6 C-7.2421875 5.0234375 -5.484375 4.046875 -3.7265625 3.0703125 C-1.8387386 1.99102726 -1.8387386 1.99102726 0 0 Z " fill="#C6C6C6" transform="translate(31,147)"/>
<path d="M0 0 C1.32 0 2.64 0 4 0 C3.8125 1.8125 3.8125 1.8125 3 4 C0.4375 5.75 0.4375 5.75 -2 7 C-1.125 1.125 -1.125 1.125 0 0 Z " fill="#F3D133" transform="translate(95,152)"/>
<path d="M0 0 C0.66 0.33 1.32 0.66 2 1 C0.1875 4 0.1875 4 -2 7 C-2.99 7 -3.98 7 -5 7 C-4.60196439 4.11424181 -4.20990931 3.17810487 -1.9375 1.25 C-1.298125 0.8375 -0.65875 0.425 0 0 Z " fill="#545454" transform="translate(28,158)"/>
<path d="M0 0 C-1.17744585 3.53233755 -1.95605641 3.86308075 -5.0625 5.6875 C-5.79597656 6.12449219 -6.52945312 6.56148437 -7.28515625 7.01171875 C-7.85105469 7.33785156 -8.41695312 7.66398438 -9 8 C-9 7.01 -9 6.02 -9 5 C-7.5390625 3.61328125 -7.5390625 3.61328125 -5.625 2.3125 C-4.68527344 1.65701172 -4.68527344 1.65701172 -3.7265625 0.98828125 C-2 0 -2 0 0 0 Z " fill="#B2B2B2" transform="translate(36,151)"/>
<path d="M0 0 C0.99 0.33 1.98 0.66 3 1 C1.35 2.65 -0.3 4.3 -2 6 C-3.32 5.34 -4.64 4.68 -6 4 C-3.1875 1.9375 -3.1875 1.9375 0 0 Z " fill="#4D4D4D" transform="translate(31,150)"/>
<path d="M0 0 C1.32 0.66 2.64 1.32 4 2 C1.6875 4.0625 1.6875 4.0625 -1 6 C-1.99 5.67 -2.98 5.34 -4 5 C-2.68 3.35 -1.36 1.7 0 0 Z " fill="#474747" transform="translate(36,159)"/>
<path d="M0 0 C0.33 0.99 0.66 1.98 1 3 C-0.9375 6.1875 -0.9375 6.1875 -3 9 C-3.75 7.3125 -3.75 7.3125 -4 5 C-2.0625 2.25 -2.0625 2.25 0 0 Z " fill="#4D4D4D" transform="translate(36,151)"/>
<path d="M0 0 C1.32 0.33 2.64 0.66 4 1 C4 2.98 4 4.96 4 7 C2 5.1875 2 5.1875 0 3 C0 2.01 0 1.02 0 0 Z " fill="#886974" transform="translate(67,120)"/>
</svg>
